<?xml version="1.0" standalone="no"?>
<!DOCTYPE svg PUBLIC "-//W3C//DTD SVG 1.1//EN" "http://www.w3.org/Graphics/SVG/1.1/DTD/svg11.dtd" >
<svg>
<metadata>
Created by FontForge 20120731 at Fri Sep  6 18:07:13 2019
 By www
(c) Copyright 1994-1995 as an unpublished work by Galapagos Design Group, Inc.  All rights reserved.
</metadata>
<defs>
<font id="OrbonITC-Regular" horiz-adv-x="320" >
  <font-face 
    font-family="Orbon ITC"
    font-weight="500"
    font-stretch="normal"
    units-per-em="1000"
    panose-1="0 0 0 0 0 0 0 0 0 0"
    ascent="800"
    descent="-200"
    x-height="474"
    cap-height="686"
    bbox="-157 -218 885 850"
    underline-thickness="55"
    underline-position="-82"
    stemh="56"
    stemv="58"
    unicode-range="U+0020-FB02"
  />
<missing-glyph horiz-adv-x="167" 
 />
    <glyph glyph-name=".notdef" horiz-adv-x="167" 
 />
    <glyph glyph-name="space" unicode=" " horiz-adv-x="167" 
 />
    <glyph glyph-name="exclam" unicode="!" horiz-adv-x="137" 
d="M98 686l-4 -492h-54l-5 492h63zM21 62l45 78h2l45 -78l-45 -77h-2z" />
    <glyph glyph-name="quotedbl" unicode="&#x22;" horiz-adv-x="204" 
d="M18 734h70l-33 -155h-16zM116 734h70l-33 -155h-16z" />
    <glyph glyph-name="numbersign" unicode="#" horiz-adv-x="350" 
d="M125 384l-11 -122h-47l11 122h-64l4 48h64l10 110h-63l5 49h63l7 95h47l-8 -95h79l8 95h46l-7 -95h62l-5 -49h-63l-9 -110h62l-4 -48h-62l-11 -122h-46l10 122h-78zM138 542l-10 -110h79l10 110h-79z" />
    <glyph glyph-name="dollar" unicode="$" horiz-adv-x="261" 
d="M109 579v107h50v-107h63v-53h-111c-22 0 -27 -7 -27 -29v-40c0 -37 8 -45 43 -45h28c64 0 84 -28 84 -97v-53c0 -82 -24 -135 -80 -168v-94h-50v95c-53 34 -78 86 -78 161v4h53v-6c0 -72 35 -113 51 -113c17 0 52 40 52 121v40c0 40 -11 58 -44 58l-26 1
c-5 0 -10 -1 -14 -1c-53 0 -72 31 -72 99v47c0 46 25 71 78 73z" />
    <glyph glyph-name="percent" unicode="%" horiz-adv-x="657" 
d="M516 694l-354 -710h-48l354 710h48zM128 686h44c63 0 84 -29 84 -97v-133c0 -112 -60 -175 -106 -175c-47 0 -106 63 -106 175v133c0 68 21 97 84 97zM166 639h-31c-29 0 -39 -12 -39 -45v-138c0 -78 30 -125 54 -125s54 46 54 125v138c0 32 -9 45 -38 45zM478 389h44
c63 0 84 -29 84 -97v-132c0 -111 -59 -175 -106 -175c-48 0 -106 64 -106 175v132c0 68 21 97 84 97zM516 343h-31c-29 0 -38 -13 -38 -46v-138c0 -79 29 -124 53 -124s54 46 54 124v138c0 33 -9 46 -38 46z" />
    <glyph glyph-name="ampersand" unicode="&#x26;" horiz-adv-x="359" 
d="M297 526h-57l-1 30c-1 47 -3 72 -43 72h-41c-38 0 -43 -23 -43 -72v-78c0 -49 5 -72 43 -72h201v-54h-56v-134c0 -62 -3 -114 -33 -166c-26 -45 -63 -70 -93 -70s-67 25 -93 70c-30 52 -32 104 -32 166v77c0 41 14 66 47 80v2c-29 14 -42 40 -42 81v94
c0 91 16 132 99 132h44c83 0 100 -41 100 -132v-26zM242 352h-92c-37 0 -44 -22 -44 -71v-62c0 -119 34 -177 68 -177s68 58 68 177v133z" />
    <glyph glyph-name="quoteright" unicode="&#x2019;" horiz-adv-x="116" 
d="M40 686h70l-64 -156h-6v156z" />
    <glyph glyph-name="parenleft" unicode="(" horiz-adv-x="185" 
d="M147 -29c-84 102 -121 221 -121 370c0 148 37 267 121 370l19 -11c-64 -89 -87 -204 -87 -359c0 -156 23 -272 87 -360z" />
    <glyph glyph-name="parenright" unicode=")" horiz-adv-x="185" 
d="M44 -29l-18 10c63 86 86 203 86 360c0 156 -23 272 -86 359l18 11c84 -102 122 -222 122 -370c0 -149 -38 -269 -122 -370z" />
    <glyph glyph-name="asterisk" unicode="*" horiz-adv-x="266" 
d="M101 686h69l-34 -107h-2zM229 642l22 -66h-112l-1 1zM227 506l-56 -41l-34 107h1zM98 466l-56 41l90 65h2zM19 576l22 66l91 -65v-1h-113z" />
    <glyph glyph-name="plus" unicode="+" horiz-adv-x="833" 
d="M436 595v-278h273v-39h-273v-278h-39v278h-273v39h273v278h39z" />
    <glyph glyph-name="comma" unicode="," horiz-adv-x="122" 
d="M35 105h80l-76 -194h-4v194z" />
    <glyph glyph-name="hyphen" unicode="-" horiz-adv-x="176" 
d="M18 289h140v-55h-140v55z" />
    <glyph glyph-name="period" unicode="." horiz-adv-x="138" 
d="M31 62l46 78h1l46 -78l-46 -77h-1z" />
    <glyph glyph-name="slash" unicode="/" horiz-adv-x="344" 
d="M313 718l-246 -780h-49l246 781z" />
    <glyph glyph-name="zero" unicode="0" horiz-adv-x="334" 
d="M141 686h52c84 0 99 -42 99 -133v-334c0 -62 -2 -114 -32 -166c-26 -45 -63 -69 -93 -69s-67 24 -93 69c-30 52 -32 104 -32 166v334c0 91 15 133 99 133zM143 629c-37 0 -44 -23 -44 -72v-337c0 -119 34 -177 68 -177c35 0 68 59 68 177v337c0 49 -7 72 -44 72h-48z" />
    <glyph glyph-name="one" unicode="1" horiz-adv-x="218" 
d="M31 686h119v-686h-58v635h-61v51z" />
    <glyph glyph-name="two" unicode="2" 
d="M93 481h-60v72c0 91 18 132 102 132h52c68 0 99 -32 99 -104v-100c0 -13 -2 -28 -16 -51l-170 -266c-7 -11 -7 -17 -7 -26v-84h198l1 -54h-259v146c0 13 3 21 10 32l173 274c11 18 12 27 12 39v66c0 49 -5 72 -43 72h-49c-38 0 -43 -23 -43 -72v-76z" />
    <glyph glyph-name="three" unicode="3" 
d="M99 352v57h57c59 0 69 5 69 72v76c0 49 -4 72 -43 72h-46c-38 0 -43 -23 -43 -72v-24h-58v20c0 91 17 133 100 133h48c83 0 100 -42 100 -133v-95c0 -44 -16 -72 -44 -80v-3c31 -8 44 -33 44 -79v-77c0 -157 -63 -235 -126 -235c-59 0 -125 79 -125 210v17h57v-4
c0 -106 36 -164 68 -164c30 0 68 59 68 147v91c0 66 -10 72 -69 72z" />
    <glyph glyph-name="four" unicode="4" 
d="M83 686v-377c0 -59 4 -72 47 -72h72v449h57v-449h53v-57h-53v-180h-57v179h-69c-74 0 -107 35 -107 111v396h57z" />
    <glyph glyph-name="five" unicode="5" 
d="M47 686h239v-58h-182v-219h118c45 0 66 -29 66 -90v-100c0 -157 -62 -235 -125 -235s-126 78 -126 235v24h58v-28c0 -114 35 -172 68 -172c30 0 68 59 68 147v110c0 42 -8 53 -45 53h-125c-10 0 -14 4 -14 14v319z" />
    <glyph glyph-name="six" unicode="6" 
d="M280 484h-58v73c0 49 -5 72 -43 72h-44c-38 0 -43 -23 -43 -72v-167c11 15 28 16 53 16h41c68 0 99 -33 99 -105v-82c0 -157 -62 -235 -125 -235s-126 78 -126 235v334c0 91 17 133 100 133h46c84 0 100 -42 100 -133v-69zM92 280v-79c0 -101 37 -158 68 -158
c34 0 68 58 68 177v82c0 35 -12 50 -44 50h-49c-42 0 -43 -25 -43 -72z" />
    <glyph glyph-name="seven" unicode="7" horiz-adv-x="311" 
d="M278 686v-124l-141 -562h-59l141 559v69h-182v58h241z" />
    <glyph glyph-name="eight" unicode="8" 
d="M242 377v-2c31 -14 46 -40 46 -79v-77c0 -157 -62 -236 -126 -236s-127 79 -127 236v77c0 39 15 65 46 79v2c-28 20 -39 44 -39 81v95c0 97 16 133 109 133h21c93 0 109 -36 109 -133v-95c0 -37 -11 -61 -39 -81zM154 404h15c49 0 54 17 54 72v87c0 49 -5 72 -43 72h-37
c-38 0 -43 -24 -43 -72v-87c0 -55 5 -72 54 -72zM94 281v-61c0 -118 34 -177 68 -177s68 59 68 177l-1 61c0 58 -7 72 -58 72h-19c-51 0 -58 -14 -58 -72z" />
    <glyph glyph-name="nine" unicode="9" 
d="M228 320h-84c-77 0 -109 28 -109 104v129c0 91 16 133 99 133h52c83 0 100 -42 100 -133v-334c0 -157 -63 -235 -126 -235c-59 0 -126 80 -126 216v12h58v-12c0 -99 37 -157 68 -157c34 0 68 58 68 177v100zM228 372v185c0 49 -6 72 -44 72h-48c-38 0 -44 -23 -44 -72
v-134c0 -46 14 -51 58 -51h78z" />
    <glyph glyph-name="colon" unicode=":" horiz-adv-x="125" 
d="M16 62l45 78h2l46 -78l-46 -77h-2zM16 396l45 78h2l46 -78l-46 -77h-2z" />
    <glyph glyph-name="semicolon" unicode=";" horiz-adv-x="124" 
d="M27 105h80l-76 -194h-4v194zM12 396l46 78h2l45 -78l-45 -77h-2z" />
    <glyph glyph-name="less" unicode="&#x3c;" horiz-adv-x="833" 
d="M704 505l-510 -207l510 -207v-43l-575 235v30l575 236v-44z" />
    <glyph glyph-name="equal" unicode="=" horiz-adv-x="833" 
d="M709 406v-39h-585v39h585zM709 229v-39h-585v39h585z" />
    <glyph glyph-name="greater" unicode="&#x3e;" horiz-adv-x="833" 
d="M704 313v-30l-575 -235v43l510 207l-510 207v44z" />
    <glyph glyph-name="question" unicode="?" horiz-adv-x="301" 
d="M98 194v125c0 60 14 87 71 87h11c39 0 40 11 40 53v103c0 49 -6 73 -43 73h-49c-37 0 -44 -23 -44 -72v-54h-55v72c0 72 30 105 99 105h48c69 0 99 -33 99 -105v-123c0 -77 -16 -106 -81 -106h-8c-32 0 -33 -14 -33 -52v-106h-55zM79 62l46 78h1l46 -78l-46 -77h-1z" />
    <glyph glyph-name="at" unicode="@" horiz-adv-x="481" 
d="M255 -47l-11 -41c-152 51 -210 134 -210 285v176c0 51 2 91 31 122c25 26 69 38 134 38h247v-420c0 -34 -8 -50 -34 -50c-9 0 -17 3 -27 9l-60 38c-27 -48 -61 -73 -88 -73c-47 0 -106 62 -106 175v122c0 68 20 97 84 97h128v-219c0 -23 -1 -43 -5 -60l53 -33
c3 -2 5 -2 6 -2c6 0 7 3 7 10v365h-183c-120 0 -145 -20 -145 -117v-147c0 -9 -1 -19 -1 -30c0 -129 49 -198 180 -245zM289 379h-67c-27 0 -36 -12 -36 -44v-123c0 -78 30 -120 51 -120s52 43 52 120v167z" />
    <glyph glyph-name="A" unicode="A" horiz-adv-x="312" 
d="M91 248v-248h-57v581c0 72 30 105 99 105h45c69 0 100 -33 100 -105c0 -11 -1 -21 -1 -28v-553h-57v248h-129zM91 304h129v256c0 59 -7 73 -57 73h-15c-50 0 -57 -14 -57 -73v-256z" />
    <glyph glyph-name="B" unicode="B" horiz-adv-x="318" 
d="M241 376v-1c33 -13 45 -38 45 -80v-76c0 -157 -61 -235 -125 -235c-58 0 -126 79 -126 201v501h146c69 0 100 -33 100 -105v-124c0 -44 -5 -66 -40 -81zM93 349v-129c0 -119 34 -177 68 -177s67 58 67 177v58c0 58 -7 71 -57 71h-78zM93 403h87c37 0 43 23 43 72v85
c0 59 -6 73 -57 73h-73v-230z" />
    <glyph glyph-name="C" unicode="C" 
d="M289 501h-57v58c0 49 -6 72 -44 72h-48c-37 0 -44 -23 -44 -72v-339c0 -119 34 -177 68 -177s68 58 68 177v37h57v-72c0 -122 -67 -201 -125 -201s-126 80 -126 201v396c0 72 30 105 99 105h54c81 0 98 -40 98 -125v-60z" />
    <glyph glyph-name="D" unicode="D" 
d="M35 686h152c83 0 100 -42 100 -133v-334c0 -157 -62 -235 -126 -235s-126 78 -126 235v467zM93 629v-439c0 -88 38 -147 68 -147c34 0 68 58 68 177v337c0 48 -6 72 -44 72h-92z" />
    <glyph glyph-name="E" unicode="E" horiz-adv-x="258" 
d="M234 686v-52h-84c-51 0 -57 -13 -57 -72v-158h135v-54h-135v-225c0 -48 3 -72 42 -72h99v-53h-101c-68 0 -98 34 -98 106v475c0 72 30 105 99 105h100z" />
    <glyph glyph-name="F" unicode="F" horiz-adv-x="256" 
d="M233 686v-52h-98c-37 0 -44 -22 -44 -72l1 -158h129v-54h-129l-1 -350h-57v581c0 72 30 105 99 105h100z" />
    <glyph glyph-name="G" unicode="G" horiz-adv-x="317" 
d="M283 343v-158c0 -126 -65 -201 -123 -201s-125 80 -125 201v396c0 72 30 105 99 105h50c69 0 99 -33 99 -105v-80h-58v59c0 49 -6 73 -43 73h-46c-37 0 -44 -24 -44 -73v-340c0 -119 34 -177 68 -177s68 58 68 177v68h-65v55h120z" />
    <glyph glyph-name="H" unicode="H" horiz-adv-x="322" 
d="M229 348h-136v-348h-58v686h58v-282h136v282h58v-686h-58v348z" />
    <glyph glyph-name="I" unicode="I" horiz-adv-x="140" 
d="M99 686v-686h-58v686h58z" />
    <glyph glyph-name="J" unicode="J" horiz-adv-x="131" 
d="M95 686v-570c0 -82 -2 -142 -87 -212l-37 41c51 46 66 85 66 145v596h58z" />
    <glyph glyph-name="K" unicode="K" horiz-adv-x="309" 
d="M266 686v-238c0 -35 -2 -43 -29 -62l-52 -38l67 -42c21 -13 21 -32 21 -64v-242h-58v233c0 24 -1 35 -28 52l-95 58v-343h-58v686h58v-282l44 -27l56 41c14 10 16 19 16 34v234h58z" />
    <glyph glyph-name="L" unicode="L" horiz-adv-x="238" 
d="M91 686v-561c0 -49 5 -72 43 -72h98v-53h-101c-68 0 -98 34 -98 106v580h58z" />
    <glyph glyph-name="M" unicode="M" horiz-adv-x="447" 
d="M251 0h-55v481c0 8 -5 18 -14 28l-87 92h-5v-601h-55v686h38c15 0 22 -3 31 -13l119 -133l120 133c9 10 15 13 30 13h39v-686h-55v601h-5l-87 -92c-9 -10 -14 -20 -14 -28v-481z" />
    <glyph glyph-name="N" unicode="N" horiz-adv-x="321" 
d="M231 422l-3 264h56v-686h-56v307c0 11 -3 16 -7 23l-133 251l2 -581h-55v686h47c12 0 16 -3 22 -15z" />
    <glyph glyph-name="O" unicode="O" 
d="M134 686h52c84 0 99 -42 99 -133v-334c0 -62 -2 -114 -32 -166c-26 -45 -63 -69 -93 -69s-67 24 -93 69c-30 52 -32 104 -32 166v334c0 91 15 133 99 133zM136 629c-37 0 -44 -23 -44 -72v-337c0 -119 34 -177 68 -177c35 0 68 59 68 177v337c0 49 -7 72 -44 72h-48z" />
    <glyph glyph-name="P" unicode="P" horiz-adv-x="296" 
d="M36 686h139c69 0 99 -33 99 -105v-106c0 -145 -51 -219 -181 -234v-241h-57v686zM93 297c101 11 123 65 123 177v88c0 49 -6 72 -43 72h-80v-337z" />
    <glyph glyph-name="Q" unicode="Q" 
d="M135 -11c-61 26 -100 99 -100 196v396c0 72 30 105 99 105h52c84 0 99 -42 99 -133v-368c0 -100 -42 -174 -102 -196l14 -95h-77zM136 629c-37 0 -44 -23 -44 -72v-337c0 -119 34 -177 68 -177s68 58 68 177v337c0 49 -7 72 -44 72h-48z" />
    <glyph glyph-name="R" unicode="R" horiz-adv-x="311" 
d="M211 320l39 -26c20 -13 29 -27 29 -48v-246h-57v226c0 20 -8 30 -28 42l-102 63v-331h-58v686h143c69 0 99 -33 99 -105v-115c0 -69 -19 -115 -65 -146zM92 393l50 -28c9 -5 15 -9 21 -9c24 0 56 41 56 134v72c0 61 -7 72 -57 72h-70v-241z" />
    <glyph glyph-name="S" unicode="S" 
d="M286 509h-57v54c0 48 -6 72 -44 72h-48c-37 0 -44 -24 -44 -73v-107c0 -42 1 -49 35 -49h84c43 0 73 -31 73 -67c0 -19 1 -32 1 -39v-81c0 -157 -62 -235 -125 -235s-126 78 -126 235v29h58v-58c0 -88 38 -147 68 -147s68 59 68 147v93c0 50 -6 65 -45 65h-60
c-80 0 -89 24 -89 109v124c0 72 30 105 99 105h53c82 0 99 -42 99 -133v-44z" />
    <glyph glyph-name="T" unicode="T" horiz-adv-x="263" 
d="M8 686h246v-52h-93v-634h-59v634h-94v52z" />
    <glyph glyph-name="U" unicode="U" 
d="M228 686h57v-686h-147c-78 0 -102 43 -102 142v544h58v-550c0 -60 11 -85 55 -85h79v635z" />
    <glyph glyph-name="V" unicode="V" 
d="M286 686v-467c0 -157 -62 -235 -125 -235s-126 78 -126 235v467h58v-496c0 -88 38 -147 68 -147s68 60 68 148v495h57z" />
    <glyph glyph-name="W" unicode="W" horiz-adv-x="476" 
d="M267 686v-495c0 -91 37 -148 58 -148s59 56 59 147v496h58v-467c0 -156 -55 -235 -116 -235c-30 0 -62 25 -88 77c-25 -52 -58 -77 -88 -77c-61 0 -116 78 -116 235v467h58v-466c0 -121 34 -177 59 -177c21 0 58 57 58 148v495h58z" />
    <glyph glyph-name="X" unicode="X" 
d="M40 686h58v-215c0 -13 0 -20 11 -30l55 -50l44 84c6 11 10 20 10 34v177h57v-172c0 -40 -8 -46 -14 -57l-52 -91l65 -54c9 -7 10 -14 10 -26v-286h-58v256c0 10 -2 19 -8 24l-54 50l-63 -116c-3 -5 -7 -10 -7 -23v-191h-57v206c0 21 8 30 13 38l67 112l-67 56
c-9 8 -10 17 -10 26v248z" />
    <glyph glyph-name="Y" unicode="Y" 
d="M36 686h58v-287c0 -123 37 -179 67 -179s68 56 68 179v287h58v-322c0 -94 -39 -167 -98 -196v-168h-55v168c-60 29 -99 102 -99 196c0 15 1 26 1 33v289z" />
    <glyph glyph-name="Z" unicode="Z" horiz-adv-x="299" 
d="M31 686h241v-105c0 -8 -3 -13 -5 -18l-184 -448c-1 -4 -3 -7 -3 -13v-48h197v-54h-253v120c0 8 2 12 3 15l184 438c3 7 5 18 5 30v29h-185v54z" />
    <glyph glyph-name="bracketleft" unicode="[" horiz-adv-x="150" 
d="M26 743h104v-38h-51v-760h52v-38h-105v836z" />
    <glyph glyph-name="backslash" unicode="\" horiz-adv-x="344" 
d="M18 718l49 1l246 -781h-49z" />
    <glyph glyph-name="bracketright" unicode="]" horiz-adv-x="150" 
d="M123 743v-836h-105v38h52v760h-51v38h104z" />
    <glyph glyph-name="asciicircum" unicode="^" horiz-adv-x="257" 
d="M127 687l124 -100l-2 -3l-120 37l-120 -37l-2 3z" />
    <glyph glyph-name="underscore" unicode="_" horiz-adv-x="500" 
d="M-6 -81h513v-43h-514z" />
    <glyph glyph-name="quoteleft" unicode="&#x2018;" horiz-adv-x="110" 
d="M74 530h-70l65 156h5v-156z" />
    <glyph glyph-name="a" unicode="a" horiz-adv-x="274" 
d="M188 262h-66c-28 0 -36 -12 -36 -44v-58c0 -76 29 -120 51 -120c21 0 51 42 51 116v106zM57 474h102c63 0 84 -29 84 -97v-217c0 -112 -60 -175 -106 -175c-45 0 -104 61 -104 175v57c0 65 19 96 69 96h86v77c0 18 -13 30 -36 30h-95v54z" />
    <glyph glyph-name="b" unicode="b" horiz-adv-x="274" 
d="M87 474h72c63 0 84 -29 84 -97v-217c0 -112 -60 -175 -106 -175s-106 63 -106 175v526h56v-212zM87 422v-262c0 -77 28 -120 50 -120c21 0 52 44 52 120v219c0 32 -10 44 -37 44z" />
    <glyph glyph-name="c" unicode="c" horiz-adv-x="271" 
d="M189 341v37c0 32 -8 44 -36 44h-30c-28 0 -37 -12 -37 -44v-218c0 -76 30 -120 52 -120c23 0 52 46 52 132v12h53v-17c0 -118 -57 -182 -105 -182c-47 0 -106 63 -106 175v217c0 68 21 97 84 97h43c63 0 85 -29 85 -97v-36h-55z" />
    <glyph glyph-name="d" unicode="d" horiz-adv-x="274" 
d="M188 474v212h55v-526c0 -112 -60 -175 -106 -175c-47 0 -106 63 -106 175v217c0 68 21 97 84 97h73zM188 422l-66 1c-27 0 -36 -12 -36 -40v-223c0 -77 29 -120 51 -120c21 0 51 43 51 116v266z" />
    <glyph glyph-name="e" unicode="e" horiz-adv-x="274" 
d="M86 242v-82c0 -77 30 -120 52 -120s51 45 51 123v4h54v-8c0 -108 -57 -174 -105 -174c-47 0 -106 63 -106 175v217c0 68 21 97 84 97h43c63 0 85 -29 85 -97v-135h-158zM189 289v89c0 32 -8 44 -36 44h-30c-28 0 -37 -12 -37 -44v-89h103z" />
    <glyph glyph-name="f" unicode="f" horiz-adv-x="203" 
d="M132 706l37 -39c-52 -46 -55 -76 -55 -114v-79h82v-55h-82v-419h-57v419h-50v55h50v62c0 61 4 110 75 170z" />
    <glyph glyph-name="g" unicode="g" horiz-adv-x="303" 
d="M76 170c-26 35 -33 75 -33 126v81c0 68 21 97 84 97h170v-47l-52 1c4 -10 6 -27 6 -51v-81c0 -113 -61 -175 -104 -175c-9 0 -21 4 -34 13l-28 -68c-1 -3 -2 -6 -2 -8c0 -5 4 -7 13 -7h119c50 0 66 -15 66 -62v-21c0 -109 -55 -168 -132 -168c-68 0 -127 58 -131 149h53
c3 -64 39 -104 81 -104c46 0 78 42 78 127c0 27 -9 28 -38 28h-143c-20 0 -30 5 -30 21c0 6 2 14 6 23zM95 378v-81c0 -77 30 -121 52 -121c21 0 52 44 52 121l-1 81c0 32 -8 44 -36 44h-30c-28 0 -37 -12 -37 -44z" />
    <glyph glyph-name="h" unicode="h" horiz-adv-x="274" 
d="M86 422v-422h-56v686h56v-212h73c63 0 84 -29 84 -97v-377h-54v378c0 32 -9 44 -37 44h-66z" />
    <glyph glyph-name="i" unicode="i" horiz-adv-x="140" 
d="M66 557l-35 129h78l-40 -129h-3zM40 0v474h57v-474h-57z" />
    <glyph glyph-name="j" unicode="j" horiz-adv-x="156" 
d="M28 -206l-37 39c46 42 60 79 60 136v505h56v-483c0 -77 -6 -131 -79 -197zM76 557l-34 129h77l-39 -129h-4z" />
    <glyph glyph-name="k" unicode="k" horiz-adv-x="279" 
d="M39 686h54v-348c0 -12 2 -14 10 -21l47 -37l30 48c4 7 10 11 10 29v117h54v-129c0 -11 -4 -17 -8 -23l-44 -71l43 -32c10 -7 12 -16 12 -29v-190h-54v171c0 6 -3 11 -8 15l-92 71v-257h-54v686z" />
    <glyph glyph-name="l" unicode="l" horiz-adv-x="139" 
d="M41 0v686h54v-686h-54z" />
    <glyph glyph-name="m" unicode="m" horiz-adv-x="415" 
d="M381 0h-54v378c0 32 -8 44 -36 44l-62 1c5 -8 5 -22 5 -42v-381h-54v378c0 32 -8 44 -36 44h-57v-422h-54v474h264c63 0 84 -29 84 -97v-377z" />
    <glyph glyph-name="n" unicode="n" horiz-adv-x="277" 
d="M90 422v-422h-54v474h129c64 0 83 -29 83 -97v-377h-54v378c0 32 -9 44 -37 44h-67z" />
    <glyph glyph-name="o" unicode="o" horiz-adv-x="274" 
d="M116 474h43c63 0 85 -29 85 -97v-217c0 -112 -60 -175 -106 -175c-47 0 -106 63 -106 175v217c0 68 21 97 84 97zM153 422h-30c-28 0 -37 -12 -37 -44v-218c0 -76 28 -119 52 -119c23 0 51 43 51 119v218c0 32 -8 44 -36 44z" />
    <glyph glyph-name="p" unicode="p" horiz-adv-x="274" 
d="M87 -218h-56v595c0 68 21 97 84 97h44c63 0 84 -29 84 -97v-223c0 -81 -55 -144 -156 -168v-204zM87 42c79 22 101 61 101 144v192c0 32 -8 44 -36 44h-30c-28 0 -35 -12 -35 -44v-336z" />
    <glyph glyph-name="q" unicode="q" horiz-adv-x="274" 
d="M187 -218v204c-101 24 -156 87 -156 168v223c0 68 21 97 84 97h44c63 0 84 -29 84 -97v-595h-56zM187 42v336c0 32 -7 44 -35 44h-30c-28 0 -37 -12 -37 -44v-192c0 -83 23 -122 102 -144z" />
    <glyph glyph-name="r" unicode="r" horiz-adv-x="226" 
d="M213 341h-51v22c0 46 -7 59 -44 59h-27v-422h-55v474h75c76 0 102 -29 102 -114v-19z" />
    <glyph glyph-name="s" unicode="s" horiz-adv-x="268" 
d="M219 420h-100c-31 0 -36 -13 -36 -44v-35c0 -42 4 -44 43 -44h28c64 0 85 -29 85 -98v-39c0 -112 -60 -175 -106 -175c-45 0 -106 65 -106 165v5h54c2 -74 31 -115 52 -115s51 44 51 120v30c0 39 -6 51 -43 51h-28c-68 0 -86 29 -86 102v45c0 59 26 86 84 86h108v-54z
" />
    <glyph glyph-name="t" unicode="t" horiz-adv-x="205" 
d="M119 420v-261c0 -55 20 -97 63 -137l-37 -38c-70 58 -81 112 -81 197v238h-57v55h56v133h56v-133h83v-54h-83z" />
    <glyph glyph-name="u" unicode="u" horiz-adv-x="283" 
d="M189 474h55v-474h-121c-63 0 -84 29 -84 97v377h54v-367c0 -40 13 -59 44 -59h52v426z" />
    <glyph glyph-name="v" unicode="v" horiz-adv-x="274" 
d="M242 474v-314c0 -113 -61 -175 -104 -175s-104 62 -104 175v314h53v-314c0 -76 30 -120 51 -120c22 0 52 43 52 120v314h52z" />
    <glyph glyph-name="w" unicode="w" horiz-adv-x="415" 
d="M231 474v-314c0 -77 30 -120 51 -120s50 43 50 120v314h51v-314c0 -113 -60 -175 -101 -175c-21 0 -50 20 -75 59c-25 -39 -53 -59 -74 -59c-41 0 -101 62 -101 175v314h51v-314c0 -77 29 -120 50 -120s50 43 50 120v314h48z" />
    <glyph glyph-name="x" unicode="x" horiz-adv-x="274" 
d="M34 474h53v-143c0 -10 3 -16 11 -22l39 -31l35 50c6 8 10 13 10 24v122h53v-127c0 -17 -8 -23 -13 -30l-49 -65l62 -38c5 -3 8 -8 8 -13v-201h-53v172c0 7 -3 13 -8 16l-38 26l-55 -68c-4 -5 -6 -11 -6 -16v-130h-53v141c0 13 7 19 13 26l60 74l-56 43
c-11 9 -13 13 -13 28v162z" />
    <glyph glyph-name="y" unicode="y" horiz-adv-x="274" 
d="M184 474h53v-692h-54v218h-66c-61 0 -84 31 -84 100v374h54v-362c0 -41 11 -59 44 -59h53v421z" />
    <glyph glyph-name="z" unicode="z" horiz-adv-x="250" 
d="M25 474h202v-90c0 -5 -2 -9 -4 -12l-142 -263c-1 -2 -3 -4 -3 -9v-49h153v-51h-209v104c0 6 3 11 6 16l137 251c6 12 6 19 6 25v25h-146v53z" />
    <glyph glyph-name="braceleft" unicode="{" horiz-adv-x="179" 
d="M13 327l37 35v381h103v-39h-51v-354l-29 -23l29 -24v-354h51v-38l-103 -1v381z" />
    <glyph glyph-name="bar" unicode="|" horiz-adv-x="174" 
d="M63 686h49v-735h-49v735z" />
    <glyph glyph-name="braceright" unicode="}" horiz-adv-x="179" 
d="M170 327l-37 -36v-381l-103 1v38h51v354l28 24l-28 23v354h-51v39h103v-381z" />
    <glyph glyph-name="asciitilde" unicode="~" horiz-adv-x="833" 
d="M747 316c-67 -47 -129 -72 -189 -72c-53 0 -97 18 -141 34c-48 17 -92 35 -141 35c-59 0 -118 -28 -189 -78v45c67 47 129 72 189 72c52 0 96 -18 141 -34c47 -17 91 -35 141 -35c59 0 118 28 189 78v-45z" />
    <glyph glyph-name="exclamdown" unicode="&#xa1;" horiz-adv-x="137" 
d="M35 -192l4 491h55l4 -491h-63zM112 431l-45 -78h-2l-45 78l45 78h2z" />
    <glyph glyph-name="cent" unicode="&#xa2;" horiz-adv-x="270" 
d="M108 581v105h51v-105c59 -2 79 -30 79 -97v-20h-53v24c0 29 -15 44 -43 44h-16c-34 0 -42 -20 -42 -59v-209c0 -84 32 -121 50 -121s52 43 52 125c0 7 0 15 -1 23h53v-20c0 -86 -23 -143 -79 -176v-95h-51v97c-59 36 -80 87 -80 166v221c0 65 17 93 80 97z" />
    <glyph glyph-name="sterling" unicode="&#xa3;" horiz-adv-x="321" 
d="M294 53v-53h-118c-86 0 -98 45 -98 134v218h-59v56h59v181c0 68 21 96 84 96h27c63 0 84 -28 84 -96v-45h-54v45c0 32 -8 45 -37 45h-11c-26 0 -35 -10 -35 -36v-190l95 1v-57h-96l1 -227c0 -48 3 -72 42 -72h116z" />
    <glyph glyph-name="fraction" unicode="&#x2044;" horiz-adv-x="85" 
d="M244 694l-353 -710h-48l354 710h47z" />
    <glyph glyph-name="yen" unicode="&#xa5;" horiz-adv-x="388" 
d="M125 686v-287c0 -121 36 -179 69 -179c32 0 68 58 68 179v287h57v-289c0 -77 -4 -132 -38 -172h50v-45h-88c-10 -6 -17 -10 -22 -12v-41h110v-45h-110v-82h-55v82h-110v45h110v41c-3 1 -11 5 -22 12h-88v45h50c-34 40 -38 95 -38 172v289h57z" />
    <glyph glyph-name="florin" unicode="&#x192;" horiz-adv-x="209" 
d="M201 423h-83v-362c0 -80 -2 -135 -82 -199l-35 41c55 45 61 80 61 133v387h-51v51h51v38c0 80 2 135 81 199l35 -40c-55 -46 -60 -81 -60 -134v-63h83v-51z" />
    <glyph glyph-name="section" unicode="&#xa7;" horiz-adv-x="281" 
d="M94 451v-66c0 -73 31 -115 51 -115c21 0 52 43 52 121v10c0 34 -7 51 -31 51h-13zM197 248c-13 -22 -32 -33 -52 -33c-45 0 -106 65 -106 166v218c0 60 26 87 84 87h108v-55h-100c-31 0 -36 -12 -37 -44v-79h71c64 0 85 -29 85 -98v-218c0 -112 -59 -175 -106 -175
s-106 65 -106 167v3h54c1 -74 31 -115 52 -115s52 44 53 121v55z" />
    <glyph glyph-name="currency" unicode="&#xa4;" horiz-adv-x="606" 
d="M175 588c39 31 81 46 128 46s90 -15 129 -46l100 101l29 -29l-101 -100c30 -38 45 -82 45 -128c0 -47 -15 -90 -45 -128l101 -100l-29 -29l-100 101c-38 -30 -82 -45 -129 -45c-48 0 -90 15 -128 45l-101 -101l-28 29l101 100c-30 38 -45 82 -45 128s15 90 45 128
l-101 100l28 29zM466 433c0 89 -72 161 -162 161s-162 -73 -162 -161c0 -89 72 -162 162 -162s162 73 162 162z" />
    <glyph glyph-name="quotesingle" unicode="'" horiz-adv-x="109" 
d="M18 734h70l-33 -155h-16z" />
    <glyph glyph-name="quotedblleft" unicode="&#x201c;" horiz-adv-x="207" 
d="M170 530h-70l65 156h5v-156zM75 530h-70l64 156h6v-156z" />
    <glyph glyph-name="guillemotleft" unicode="&#xab;" horiz-adv-x="266" 
d="M30 249l102 138l7 -2l-57 -136l57 -131l-7 -2zM136 249l102 138l7 -2l-57 -136l57 -131l-7 -2z" />
    <glyph glyph-name="guilsinglleft" unicode="&#x2039;" horiz-adv-x="165" 
d="M29 249l102 138l6 -2l-56 -136l56 -131l-6 -2z" />
    <glyph glyph-name="guilsinglright" unicode="&#x203a;" horiz-adv-x="165" 
d="M137 249l-101 -133l-7 2l56 131l-56 136l7 2z" />
    <glyph glyph-name="fi" unicode="&#xfb01;" horiz-adv-x="311" 
d="M132 706l38 -39c-55 -48 -56 -80 -56 -125v-68h64v-55h-64v-419h-56v419h-51v55h51v66c0 59 4 107 74 166zM235 557l-34 129h77l-39 -129h-4zM209 0v474h57v-474h-57z" />
    <glyph glyph-name="fl" unicode="&#xfb02;" horiz-adv-x="311" 
d="M132 706l38 -39c-55 -48 -56 -80 -56 -125v-68h64v-55h-64v-419h-56v419h-51v55h51v66c0 59 4 107 74 166zM209 0v686h57v-686h-57z" />
    <glyph glyph-name="endash" unicode="&#x2013;" horiz-adv-x="240" 
d="M13 337h212v-55h-212v55z" />
    <glyph glyph-name="dagger" unicode="&#x2020;" horiz-adv-x="209" 
d="M76 685h56v-109h62v-51h-62v-263h-56v263h-62v51h62v109z" />
    <glyph glyph-name="daggerdbl" unicode="&#x2021;" horiz-adv-x="209" 
d="M133 437h61v-51h-61v-124h-58v124h-62v51h62v88h-61v51h61v109h58v-109h61v-51h-61v-88z" />
    <glyph glyph-name="periodcentered" unicode="&#xb7;" horiz-adv-x="225" 
d="M36 258l79 84l79 -84l-79 -84z" />
    <glyph glyph-name="paragraph" unicode="&#xb6;" horiz-adv-x="439" 
d="M394 686v-817h-57v764h-49v-764h-58v424c-120 9 -194 86 -194 195c0 133 87 198 262 198h96z" />
    <glyph glyph-name="bullet" unicode="&#x2022;" horiz-adv-x="489" 
d="M108 322l144 152l143 -152l-143 -152z" />
    <glyph glyph-name="quotesinglbase" unicode="&#x201a;" horiz-adv-x="115" 
d="M25 67h70l-65 -156h-5v156z" />
    <glyph glyph-name="quotedblbase" unicode="&#x201e;" horiz-adv-x="212" 
d="M25 67h70l-65 -156h-5v156zM120 67h70l-64 -156h-6v156z" />
    <glyph glyph-name="quotedblright" unicode="&#x201d;" horiz-adv-x="210" 
d="M38 686h70l-64 -156h-6v156zM134 686h70l-65 -156h-5v156z" />
    <glyph glyph-name="guillemotright" unicode="&#xbb;" horiz-adv-x="266" 
d="M238 249l-101 -133l-7 2l56 131l-56 136l7 2zM132 249l-101 -133l-7 2l56 131l-56 136l7 2z" />
    <glyph glyph-name="ellipsis" unicode="&#x2026;" horiz-adv-x="532" 
d="M32 62l46 78h1l46 -78l-46 -77h-1zM219 62l45 78h2l45 -78l-45 -77h-2zM406 62l45 78h2l45 -78l-45 -77h-2z" />
    <glyph glyph-name="perthousand" unicode="&#x2030;" horiz-adv-x="944" 
d="M516 694l-354 -710h-48l354 710h48zM128 686h44c63 0 84 -29 84 -97v-133c0 -112 -60 -175 -106 -175c-47 0 -106 63 -106 175v133c0 68 21 97 84 97zM166 639h-31c-29 0 -39 -12 -39 -45v-138c0 -78 30 -125 54 -125s54 46 54 125v138c0 32 -9 45 -38 45zM478 389h44
c63 0 84 -29 84 -97v-132c0 -111 -59 -175 -106 -175c-48 0 -106 64 -106 175v132c0 68 21 97 84 97zM516 343h-31c-29 0 -38 -13 -38 -46v-138c0 -79 29 -124 53 -124s54 46 54 124v138c0 33 -9 46 -38 46zM757 389h44c63 0 84 -29 84 -97v-132c0 -111 -59 -175 -106 -175
c-48 0 -106 63 -106 175v132c0 68 20 97 84 97zM794 343h-30c-29 0 -39 -13 -39 -46v-138c0 -79 30 -124 54 -124s54 46 54 124v138c0 33 -10 46 -39 46z" />
    <glyph glyph-name="questiondown" unicode="&#xbf;" horiz-adv-x="301" 
d="M206 299v-124c0 -61 -15 -87 -72 -87h-10c-39 0 -41 -12 -41 -54v-103c0 -49 7 -72 44 -72h49c37 0 43 22 43 71v54h55v-71c0 -72 -30 -105 -99 -105h-47c-69 0 -100 33 -100 105v122c0 77 17 106 82 106h8c32 0 33 13 33 52v106h55zM225 431l-45 -78h-2l-46 78l46 78h2z
" />
    <glyph glyph-name="grave" unicode="`" horiz-adv-x="500" 
d="M253 634l34 -119h-4l-122 119h92z" />
    <glyph glyph-name="acute" unicode="&#xb4;" horiz-adv-x="500" 
d="M246 634h92l-122 -119h-4z" />
    <glyph glyph-name="circumflex" unicode="&#x2c6;" horiz-adv-x="500" 
d="M248 631l86 -100l-1 -2l-83 37l-84 -37l-1 2z" />
    <glyph glyph-name="tilde" unicode="&#x2dc;" horiz-adv-x="500" 
d="M347 598l-78 -73l-42 49l-71 -24l-2 2l80 79l44 -55l68 25z" />
    <glyph glyph-name="macron" unicode="&#xaf;" horiz-adv-x="500" 
d="M171 606h161v-39h-161v39z" />
    <glyph glyph-name="breve" unicode="&#x2d8;" horiz-adv-x="500" 
d="M142 650l5 -8c27 -45 53 -63 102 -63s75 18 102 63l5 8l8 -5l-2 -6c-22 -76 -57 -114 -113 -114c-57 0 -91 38 -113 114l-2 6z" />
    <glyph glyph-name="dotaccent" unicode="&#x2d9;" horiz-adv-x="500" 
d="M249 609c19 0 35 -15 35 -33c0 -19 -15 -33 -35 -33s-35 14 -35 33c0 18 16 33 35 33z" />
    <glyph glyph-name="dieresis" unicode="&#xa8;" horiz-adv-x="500" 
d="M195 609c19 0 35 -15 35 -33c0 -19 -15 -33 -35 -33s-34 14 -34 33c0 18 15 33 34 33zM302 609c19 0 35 -15 35 -33c0 -19 -15 -33 -35 -33s-34 14 -34 33c0 18 15 33 34 33z" />
    <glyph glyph-name="ring" unicode="&#x2da;" horiz-adv-x="500" 
d="M256 615c-20 0 -37 -17 -37 -36c0 -21 16 -35 37 -35s37 14 37 35c0 19 -17 36 -37 36zM256 631c30 0 54 -24 54 -52c0 -30 -22 -52 -54 -52s-54 22 -54 52c0 28 24 52 54 52z" />
    <glyph glyph-name="cedilla" unicode="&#xb8;" horiz-adv-x="500" 
d="M247 -165l-39 110h86l-44 -110h-3z" />
    <glyph glyph-name="hungarumlaut" unicode="&#x2dd;" horiz-adv-x="500" 
d="M214 634h92l-122 -119h-4zM332 634h92l-122 -119h-4z" />
    <glyph glyph-name="ogonek" unicode="&#x2db;" horiz-adv-x="500" 
d="M253 -43l40 -110h-87l44 110h3z" />
    <glyph glyph-name="caron" unicode="&#x2c7;" horiz-adv-x="500" 
d="M251 529l-86 101l1 1l84 -36l83 36l1 -1z" />
    <glyph glyph-name="emdash" unicode="&#x2014;" horiz-adv-x="324" 
d="M-4 289h333v-55h-333v55z" />
    <glyph glyph-name="AE" unicode="&#xc6;" horiz-adv-x="469" 
d="M430 0h-101c-69 0 -98 33 -98 105v143h-129v-248h-58v581c0 72 31 105 100 105h45c31 0 54 -7 70 -23c14 15 37 23 71 23h101v-52h-99c-38 0 -43 -24 -43 -72v-158h135v-54h-135v-225c0 -49 5 -72 43 -72h98v-53zM102 304h129v256c0 58 -6 73 -57 74h-15
c-51 0 -57 -16 -57 -74v-256z" />
    <glyph glyph-name="ordfeminine" unicode="&#xaa;" horiz-adv-x="188" 
d="M127 555h-43c-18 0 -24 -8 -24 -29v-15c0 -47 21 -76 34 -76c14 0 33 27 33 75v45zM41 685h67c42 0 55 -18 55 -63v-108c0 -74 -39 -115 -69 -115c-29 0 -68 40 -68 113v30c0 31 18 47 54 47h47v32c0 20 -4 29 -23 29h-63v35z" />
    <glyph glyph-name="Lslash" unicode="&#x141;" horiz-adv-x="256" 
d="M40 686h58v-298l73 61v-58l-73 -60v-206c0 -49 5 -72 43 -72h98v-53h-101c-84 0 -98 44 -98 134v158l-40 -34v58l40 34v336z" />
    <glyph glyph-name="Oslash" unicode="&#xd8;" horiz-adv-x="323" 
d="M134 686h52c83 0 100 -42 100 -133v-334c0 -157 -63 -235 -126 -235s-125 78 -125 235v334c0 91 16 133 99 133zM228 501v56c0 49 -5 72 -43 72h-49c-38 0 -44 -23 -44 -72v-228zM228 412l-136 -168v-54c0 -88 38 -147 68 -147s68 59 68 147v222z" />
    <glyph glyph-name="OE" unicode="&#x152;" horiz-adv-x="476" 
d="M265 665c20 16 41 21 70 21h102v-53h-100c-38 0 -43 -22 -43 -71v-158h135v-54h-135v-225c0 -48 4 -72 43 -72h98v-53h-101c-40 0 -68 12 -88 38c-27 -31 -52 -46 -77 -46c-30 0 -67 24 -93 69c-30 52 -33 105 -33 166v326c0 91 16 133 100 133h51c28 0 51 -5 71 -21z
M144 633c-37 0 -43 -27 -43 -72v-333c0 -119 34 -177 68 -177s68 58 68 177v329c0 49 -7 72 -44 76h-49z" />
    <glyph glyph-name="ordmasculine" unicode="&#xba;" horiz-adv-x="176" 
d="M72 685h28c40 0 53 -18 53 -61v-114c0 -71 -38 -111 -67 -111s-67 40 -67 111v114c0 43 13 61 53 61zM96 653h-19c-17 0 -23 -8 -23 -28v-115c0 -47 17 -76 32 -76s33 28 33 76v115c0 20 -5 28 -23 28z" />
    <glyph glyph-name="ae" unicode="&#xe6;" horiz-adv-x="455" 
d="M407 167v-6c0 -110 -58 -176 -105 -176c-25 0 -58 21 -79 60c-24 -40 -55 -60 -79 -60c-45 0 -104 61 -104 175v57c0 65 19 96 69 96h85v77c0 18 -12 30 -35 30h-95v54h102c24 0 42 -3 56 -16c14 12 33 16 58 16h43c63 0 84 -29 84 -97v-135h-157v-82
c0 -76 30 -120 52 -120s51 45 51 123v4h54zM353 289v89c0 30 -8 42 -31 42h-35c-28 0 -37 -10 -37 -42v-89h103zM194 262h-65c-28 0 -37 -12 -37 -44v-58c0 -76 30 -120 52 -120c21 0 50 42 50 116v106z" />
    <glyph glyph-name="dotlessi" unicode="&#x131;" horiz-adv-x="142" 
d="M42 0v474h57v-474h-57z" />
    <glyph glyph-name="lslash" unicode="&#x142;" horiz-adv-x="136" 
d="M41 686h54v-308l41 37v-55l-41 -38v-322h-54v288l-41 -38v56l41 38v342z" />
    <glyph glyph-name="oslash" unicode="&#xf8;" horiz-adv-x="282" 
d="M120 474h43c63 0 84 -29 84 -97v-217c0 -112 -59 -175 -105 -175s-106 63 -106 175v217c0 68 21 97 84 97zM193 371v7c0 32 -9 44 -37 44h-29c-28 0 -37 -12 -37 -44v-137zM193 289l-103 -127v-2c0 -76 29 -119 52 -119s51 44 51 119v129z" />
    <glyph glyph-name="oe" unicode="&#x153;" horiz-adv-x="455" 
d="M223 458c13 11 32 16 57 16h43c63 0 84 -29 84 -97v-135h-157v-82c0 -76 30 -120 52 -120s51 45 51 123v4h54v-6c0 -110 -58 -176 -105 -176c-25 0 -56 20 -79 60c-26 -40 -54 -60 -79 -60c-47 0 -106 63 -106 175v217c0 68 21 97 84 97h44c27 0 46 -5 57 -16zM159 422
h-30c-28 0 -37 -12 -37 -44v-218c0 -76 28 -119 52 -119c23 0 51 43 51 119v218c0 32 -8 44 -36 44zM353 289v89c0 32 -9 44 -37 44h-29c-28 0 -37 -12 -37 -44v-89h103z" />
    <glyph glyph-name="germandbls" unicode="&#xdf;" horiz-adv-x="360" 
d="M260 388c34 -13 46 -37 46 -79v-146c0 -118 -39 -169 -141 -169h-12v56c5 0 11 -1 15 -1c57 0 82 27 82 91v155c0 57 -8 71 -58 71h-40v52h35c51 0 57 13 57 72v72c0 49 -7 72 -44 72h-41c-38 0 -44 -22 -44 -71v-563h-55v581c0 71 32 105 99 105h41c69 0 99 -33 99 -105
v-109c0 -37 -11 -61 -39 -81v-3z" />
    <glyph glyph-name="Aacute" unicode="&#xc1;" horiz-adv-x="312" 
d="M91 248v-248h-57v581c0 72 30 105 99 105h45c69 0 100 -33 100 -105c0 -11 -1 -21 -1 -28v-553h-57v248h-129zM91 304h129v256c0 59 -7 73 -57 73h-15c-50 0 -57 -14 -57 -73v-256zM152 845h92l-122 -119h-4z" />
    <glyph glyph-name="Acircumflex" unicode="&#xc2;" horiz-adv-x="312" 
d="M91 248v-248h-57v581c0 72 30 105 99 105h45c69 0 100 -33 100 -105c0 -11 -1 -21 -1 -28v-553h-57v248h-129zM91 304h129v256c0 59 -7 73 -57 73h-15c-50 0 -57 -14 -57 -73v-256zM154 842l86 -100l-1 -2l-83 37l-84 -37l-1 2z" />
    <glyph glyph-name="Adieresis" unicode="&#xc4;" horiz-adv-x="312" 
d="M91 248v-248h-57v581c0 72 30 105 99 105h45c69 0 100 -33 100 -105c0 -11 -1 -21 -1 -28v-553h-57v248h-129zM91 304h129v256c0 59 -7 73 -57 73h-15c-50 0 -57 -14 -57 -73v-256zM101 820c19 0 35 -15 35 -33c0 -19 -15 -33 -35 -33s-34 14 -34 33c0 18 15 33 34 33z
M208 820c19 0 35 -15 35 -33c0 -19 -15 -33 -35 -33s-34 14 -34 33c0 18 15 33 34 33z" />
    <glyph glyph-name="Agrave" unicode="&#xc0;" horiz-adv-x="312" 
d="M91 248v-248h-57v581c0 72 30 105 99 105h45c69 0 100 -33 100 -105c0 -11 -1 -21 -1 -28v-553h-57v248h-129zM91 304h129v256c0 59 -7 73 -57 73h-15c-50 0 -57 -14 -57 -73v-256zM159 845l34 -119h-4l-122 119h92z" />
    <glyph glyph-name="Aring" unicode="&#xc5;" horiz-adv-x="337" 
d="M104 248v-248h-57v581c0 72 30 105 99 105h45c69 0 100 -33 100 -105v-581h-57v248h-130zM104 304h130v256c0 59 -8 73 -58 73h-15c-50 0 -57 -14 -57 -73v-256zM171 830c-25 0 -44 -19 -44 -43c0 -22 18 -39 44 -39s44 17 44 41c0 22 -20 41 -44 41zM171 850
c36 0 64 -28 64 -63c0 -32 -27 -58 -64 -58s-65 26 -65 58c0 35 28 63 65 63z" />
    <glyph glyph-name="Atilde" unicode="&#xc3;" horiz-adv-x="312" 
d="M91 248v-248h-57v581c0 72 30 105 99 105h45c69 0 100 -33 100 -105c0 -11 -1 -21 -1 -28v-553h-57v248h-129zM91 304h129v256c0 59 -7 73 -57 73h-15c-50 0 -57 -14 -57 -73v-256zM253 809l-78 -73l-42 49l-71 -24l-2 2l80 79l44 -55l68 25z" />
    <glyph glyph-name="Ccedilla" unicode="&#xc7;" horiz-adv-x="336" 
d="M297 501h-57v58c0 49 -6 72 -44 72h-49c-37 0 -43 -23 -43 -72v-339c0 -119 34 -177 68 -177s68 58 68 177v37h57v-72c0 -122 -67 -201 -125 -201s-126 80 -126 201v396c0 72 30 105 99 105h53c83 0 99 -42 99 -133v-52zM164 -186l-45 125h100l-52 -125h-3z" />
    <glyph glyph-name="Eacute" unicode="&#xc9;" horiz-adv-x="258" 
d="M234 686v-52h-84c-51 0 -57 -13 -57 -72v-158h135v-54h-135v-225c0 -48 3 -72 42 -72h99v-53h-101c-68 0 -98 34 -98 106v475c0 72 30 105 99 105h100zM136 845h92l-122 -119h-4z" />
    <glyph glyph-name="Ecircumflex" unicode="&#xca;" horiz-adv-x="258" 
d="M234 686v-52h-84c-51 0 -57 -13 -57 -72v-158h135v-54h-135v-225c0 -48 3 -72 42 -72h99v-53h-101c-68 0 -98 34 -98 106v475c0 72 30 105 99 105h100zM138 842l86 -100l-1 -2l-83 37l-84 -37l-1 2z" />
    <glyph glyph-name="Edieresis" unicode="&#xcb;" horiz-adv-x="258" 
d="M234 686v-52h-84c-51 0 -57 -13 -57 -72v-158h135v-54h-135v-225c0 -48 3 -72 42 -72h99v-53h-101c-68 0 -98 34 -98 106v475c0 72 30 105 99 105h100zM85 820c19 0 35 -15 35 -33c0 -19 -15 -33 -35 -33s-34 14 -34 33c0 18 15 33 34 33zM192 820c19 0 35 -15 35 -33
c0 -19 -15 -33 -35 -33s-34 14 -34 33c0 18 15 33 34 33z" />
    <glyph glyph-name="Egrave" unicode="&#xc8;" horiz-adv-x="258" 
d="M234 686v-52h-84c-51 0 -57 -13 -57 -72v-158h135v-54h-135v-225c0 -48 3 -72 42 -72h99v-53h-101c-68 0 -98 34 -98 106v475c0 72 30 105 99 105h100zM143 845l34 -119h-4l-122 119h92z" />
    <glyph glyph-name="Eth" unicode="&#xd0;" 
d="M35 686h152c83 0 100 -42 100 -133v-334c0 -157 -62 -235 -126 -235s-126 78 -126 235v134h-35v46h35v287zM93 629v-230h68v-46h-68v-163c0 -88 38 -147 68 -147c34 0 68 58 68 177v337c0 48 -6 72 -44 72h-92z" />
    <glyph glyph-name="Iacute" unicode="&#xcd;" horiz-adv-x="140" 
d="M99 686v-686h-58v686h58zM66 845h92l-122 -119h-4z" />
    <glyph glyph-name="Icircumflex" unicode="&#xce;" horiz-adv-x="140" 
d="M99 686v-686h-58v686h58zM68 842l86 -100l-1 -2l-83 37l-84 -37l-1 2z" />
    <glyph glyph-name="Idieresis" unicode="&#xcf;" horiz-adv-x="140" 
d="M99 686v-686h-58v686h58zM15 820c19 0 35 -15 35 -33c0 -19 -15 -33 -35 -33s-34 14 -34 33c0 18 15 33 34 33zM122 820c19 0 35 -15 35 -33c0 -19 -15 -33 -35 -33s-34 14 -34 33c0 18 15 33 34 33z" />
    <glyph glyph-name="Igrave" unicode="&#xcc;" horiz-adv-x="140" 
d="M99 686v-686h-58v686h58zM73 845l34 -119h-4l-122 119h92z" />
    <glyph glyph-name="Ntilde" unicode="&#xd1;" horiz-adv-x="321" 
d="M231 422l-3 264h56v-686h-56v307c0 11 -3 16 -7 23l-133 251l2 -581h-55v686h47c12 0 16 -3 22 -15zM258 809l-78 -73l-42 49l-71 -24l-2 2l80 79l44 -55l68 25z" />
    <glyph glyph-name="Oacute" unicode="&#xd3;" 
d="M134 686h52c84 0 99 -42 99 -133v-334c0 -62 -2 -114 -32 -166c-26 -45 -63 -69 -93 -69s-67 24 -93 69c-30 52 -32 104 -32 166v334c0 91 15 133 99 133zM136 629c-37 0 -44 -23 -44 -72v-337c0 -119 34 -177 68 -177c35 0 68 59 68 177v337c0 49 -7 72 -44 72h-48z
M156 845h92l-122 -119h-4z" />
    <glyph glyph-name="Ocircumflex" unicode="&#xd4;" 
d="M134 686h52c84 0 99 -42 99 -133v-334c0 -62 -2 -114 -32 -166c-26 -45 -63 -69 -93 -69s-67 24 -93 69c-30 52 -32 104 -32 166v334c0 91 15 133 99 133zM136 629c-37 0 -44 -23 -44 -72v-337c0 -119 34 -177 68 -177c35 0 68 59 68 177v337c0 49 -7 72 -44 72h-48z
M158 842l86 -100l-1 -2l-83 37l-84 -37l-1 2z" />
    <glyph glyph-name="Odieresis" unicode="&#xd6;" 
d="M134 686h52c84 0 99 -42 99 -133v-334c0 -62 -2 -114 -32 -166c-26 -45 -63 -69 -93 -69s-67 24 -93 69c-30 52 -32 104 -32 166v334c0 91 15 133 99 133zM136 629c-37 0 -44 -23 -44 -72v-337c0 -119 34 -177 68 -177c35 0 68 59 68 177v337c0 49 -7 72 -44 72h-48z
M105 820c19 0 35 -15 35 -33c0 -19 -15 -33 -35 -33s-34 14 -34 33c0 18 15 33 34 33zM212 820c19 0 35 -15 35 -33c0 -19 -15 -33 -35 -33s-34 14 -34 33c0 18 15 33 34 33z" />
    <glyph glyph-name="Ograve" unicode="&#xd2;" 
d="M134 686h52c84 0 99 -42 99 -133v-334c0 -62 -2 -114 -32 -166c-26 -45 -63 -69 -93 -69s-67 24 -93 69c-30 52 -32 104 -32 166v334c0 91 15 133 99 133zM136 629c-37 0 -44 -23 -44 -72v-337c0 -119 34 -177 68 -177c35 0 68 59 68 177v337c0 49 -7 72 -44 72h-48z
M163 845l34 -119h-4l-122 119h92z" />
    <glyph glyph-name="Otilde" unicode="&#xd5;" 
d="M134 686h52c84 0 99 -42 99 -133v-334c0 -62 -2 -114 -32 -166c-26 -45 -63 -69 -93 -69s-67 24 -93 69c-30 52 -32 104 -32 166v334c0 91 15 133 99 133zM136 629c-37 0 -44 -23 -44 -72v-337c0 -119 34 -177 68 -177c35 0 68 59 68 177v337c0 49 -7 72 -44 72h-48z
M257 809l-78 -73l-42 49l-71 -24l-2 2l80 79l44 -55l68 25z" />
    <glyph glyph-name="Scaron" unicode="&#x160;" 
d="M286 509h-57v54c0 48 -6 72 -44 72h-48c-37 0 -44 -24 -44 -73v-107c0 -42 1 -49 35 -49h84c43 0 73 -31 73 -67c0 -19 1 -32 1 -39v-81c0 -157 -62 -235 -125 -235s-126 78 -126 235v29h58v-58c0 -88 38 -147 68 -147s68 59 68 147v93c0 50 -6 65 -45 65h-60
c-80 0 -89 24 -89 109v124c0 72 30 105 99 105h53c82 0 99 -42 99 -133v-44zM161 740l-86 101l1 1l84 -36l83 36l1 -1z" />
    <glyph glyph-name="Thorn" unicode="&#xde;" horiz-adv-x="305" 
d="M36 686h58v-121h81c69 0 99 -33 99 -105v-105c0 -145 -51 -219 -180 -234v-121h-58v686zM94 514v-338c100 11 122 65 122 177v88c0 49 -6 73 -43 73h-79z" />
    <glyph glyph-name="Uacute" unicode="&#xda;" 
d="M228 686h57v-686h-147c-78 0 -102 43 -102 142v544h58v-550c0 -60 11 -85 55 -85h79v635zM160 845h92l-122 -119h-4z" />
    <glyph glyph-name="Ucircumflex" unicode="&#xdb;" 
d="M228 686h57v-686h-147c-78 0 -102 43 -102 142v544h58v-550c0 -60 11 -85 55 -85h79v635zM162 842l86 -100l-1 -2l-83 37l-84 -37l-1 2z" />
    <glyph glyph-name="Udieresis" unicode="&#xdc;" 
d="M228 686h57v-686h-147c-78 0 -102 43 -102 142v544h58v-550c0 -60 11 -85 55 -85h79v635zM109 820c19 0 35 -15 35 -33c0 -19 -15 -33 -35 -33s-34 14 -34 33c0 18 15 33 34 33zM216 820c19 0 35 -15 35 -33c0 -19 -15 -33 -35 -33s-34 14 -34 33c0 18 15 33 34 33z" />
    <glyph glyph-name="Ugrave" unicode="&#xd9;" 
d="M228 686h57v-686h-147c-78 0 -102 43 -102 142v544h58v-550c0 -60 11 -85 55 -85h79v635zM167 845l34 -119h-4l-122 119h92z" />
    <glyph glyph-name="Yacute" unicode="&#xdd;" 
d="M36 686h58v-287c0 -123 37 -179 67 -179s68 56 68 179v287h58v-322c0 -94 -39 -167 -98 -196v-168h-55v168c-60 29 -99 102 -99 196c0 15 1 26 1 33v289zM161 845h92l-122 -119h-4z" />
    <glyph glyph-name="Ydieresis" unicode="&#x178;" 
d="M36 686h58v-287c0 -123 37 -179 67 -179s68 56 68 179v287h58v-322c0 -94 -39 -167 -98 -196v-168h-55v168c-60 29 -99 102 -99 196c0 15 1 26 1 33v289zM110 820c19 0 35 -15 35 -33c0 -19 -15 -33 -35 -33s-34 14 -34 33c0 18 15 33 34 33zM217 820c19 0 35 -15 35 -33
c0 -19 -15 -33 -35 -33s-34 14 -34 33c0 18 15 33 34 33z" />
    <glyph glyph-name="Zcaron" unicode="&#x17d;" horiz-adv-x="299" 
d="M31 686h241v-105c0 -8 -3 -13 -5 -18l-184 -448c-1 -4 -3 -7 -3 -13v-48h197v-54h-253v120c0 8 2 12 3 15l184 438c3 7 5 18 5 30v29h-185v54zM151 740l-86 101l1 1l84 -36l83 36l1 -1z" />
    <glyph glyph-name="aacute" unicode="&#xe1;" horiz-adv-x="274" 
d="M188 262h-66c-28 0 -36 -12 -36 -44v-58c0 -76 29 -120 51 -120c21 0 51 42 51 116v106zM57 474h102c63 0 84 -29 84 -97v-217c0 -112 -60 -175 -106 -175c-45 0 -104 61 -104 175v57c0 65 19 96 69 96h86v77c0 18 -13 30 -36 30h-95v54zM133 634h92l-122 -119h-4z" />
    <glyph glyph-name="acircumflex" unicode="&#xe2;" horiz-adv-x="274" 
d="M188 262h-66c-28 0 -36 -12 -36 -44v-58c0 -76 29 -120 51 -120c21 0 51 42 51 116v106zM57 474h102c63 0 84 -29 84 -97v-217c0 -112 -60 -175 -106 -175c-45 0 -104 61 -104 175v57c0 65 19 96 69 96h86v77c0 18 -13 30 -36 30h-95v54zM135 631l86 -100l-1 -2l-83 37
l-84 -37l-1 2z" />
    <glyph glyph-name="adieresis" unicode="&#xe4;" horiz-adv-x="274" 
d="M188 262h-66c-28 0 -36 -12 -36 -44v-58c0 -76 29 -120 51 -120c21 0 51 42 51 116v106zM57 474h102c63 0 84 -29 84 -97v-217c0 -112 -60 -175 -106 -175c-45 0 -104 61 -104 175v57c0 65 19 96 69 96h86v77c0 18 -13 30 -36 30h-95v54zM82 609c19 0 35 -15 35 -33
c0 -19 -15 -33 -35 -33s-34 14 -34 33c0 18 15 33 34 33zM189 609c19 0 35 -15 35 -33c0 -19 -15 -33 -35 -33s-34 14 -34 33c0 18 15 33 34 33z" />
    <glyph glyph-name="agrave" unicode="&#xe0;" horiz-adv-x="274" 
d="M188 262h-66c-28 0 -36 -12 -36 -44v-58c0 -76 29 -120 51 -120c21 0 51 42 51 116v106zM57 474h102c63 0 84 -29 84 -97v-217c0 -112 -60 -175 -106 -175c-45 0 -104 61 -104 175v57c0 65 19 96 69 96h86v77c0 18 -13 30 -36 30h-95v54zM140 634l34 -119h-4l-122 119h92
z" />
    <glyph glyph-name="aring" unicode="&#xe5;" horiz-adv-x="307" 
d="M205 262h-67c-28 0 -37 -12 -37 -44v-58c0 -76 31 -120 52 -120c22 0 52 44 52 120v102zM73 474h102c63 0 84 -29 84 -97v-217c0 -112 -60 -175 -106 -175c-44 0 -104 61 -104 175v57c0 65 18 96 69 96h86v62c0 31 -6 45 -36 45l-95 -1v55zM160 615
c-20 0 -37 -17 -37 -36c0 -21 16 -35 37 -35s37 14 37 35c0 19 -17 36 -37 36zM160 631c30 0 54 -24 54 -52c0 -30 -22 -52 -54 -52s-54 22 -54 52c0 28 24 52 54 52z" />
    <glyph glyph-name="atilde" unicode="&#xe3;" horiz-adv-x="274" 
d="M188 262h-66c-28 0 -36 -12 -36 -44v-58c0 -76 29 -120 51 -120c21 0 51 42 51 116v106zM57 474h102c63 0 84 -29 84 -97v-217c0 -112 -60 -175 -106 -175c-45 0 -104 61 -104 175v57c0 65 19 96 69 96h86v77c0 18 -13 30 -36 30h-95v54zM234 598l-78 -73l-42 49l-71 -24
l-2 2l80 79l44 -55l68 25z" />
    <glyph glyph-name="brokenbar" unicode="&#xa6;" horiz-adv-x="500" 
d="M272 699v-370h-44v370h44zM272 199v-370h-44v370h44z" />
    <glyph glyph-name="ccedilla" unicode="&#xe7;" horiz-adv-x="265" 
d="M185 341v37c0 32 -8 44 -36 44h-30c-28 0 -37 -12 -37 -44v-218c0 -77 30 -120 52 -120c23 0 52 45 52 128v16h53v-17c0 -118 -56 -182 -105 -182c-47 0 -106 63 -106 175v217c0 68 21 97 84 97h44c63 0 84 -29 84 -97v-36h-55zM127 -165l-40 110h87l-44 -110h-3z" />
    <glyph glyph-name="copyright" unicode="&#xa9;" horiz-adv-x="284" 
d="M125 642h30c6 0 10 -1 11 -1c22 0 34 -16 34 -50v-28h-28v21c0 4 -1 7 -1 10c0 16 -3 22 -19 22h-24c-16 0 -19 -7 -19 -22v-130c0 -47 17 -73 31 -73s32 28 32 73v22h28v-11c0 -74 -30 -110 -60 -110s-60 35 -60 112v118c0 31 14 46 35 46c1 0 4 1 10 1zM88 667
c-36 0 -41 -4 -41 -44v-231c0 -43 3 -47 41 -47h109c36 0 41 3 41 44v231c0 43 -3 47 -41 47h-109zM201 686c39 0 57 -9 57 -47c0 -2 1 -7 1 -18v-231c0 -12 -1 -19 -1 -21c0 -35 -20 -43 -57 -43h-116c-53 0 -59 13 -59 64v231c0 51 6 65 59 65h116z" />
    <glyph glyph-name="degree" unicode="&#xb0;" horiz-adv-x="316" 
d="M42 570c0 64 52 116 116 116s116 -52 116 -116s-52 -116 -116 -116s-116 52 -116 116zM80 570c0 -43 35 -78 78 -78s78 36 78 78s-35 78 -78 78s-78 -36 -78 -78z" />
    <glyph glyph-name="divide" unicode="&#xf7;" horiz-adv-x="833" 
d="M417 515c27 0 48 -21 48 -48c0 -26 -21 -49 -48 -49s-48 22 -48 49s22 48 48 48zM709 318v-39h-585v39h585zM417 179c27 0 48 -23 48 -49c0 -27 -21 -48 -48 -48s-48 20 -48 48c0 26 22 49 48 49z" />
    <glyph glyph-name="eacute" unicode="&#xe9;" horiz-adv-x="274" 
d="M86 242v-82c0 -77 30 -120 52 -120s51 45 51 123v4h54v-8c0 -108 -57 -174 -105 -174c-47 0 -106 63 -106 175v217c0 68 21 97 84 97h43c63 0 85 -29 85 -97v-135h-158zM189 289v89c0 32 -8 44 -36 44h-30c-28 0 -37 -12 -37 -44v-89h103zM133 634h92l-122 -119h-4z" />
    <glyph glyph-name="ecircumflex" unicode="&#xea;" horiz-adv-x="274" 
d="M86 242v-82c0 -77 30 -120 52 -120s51 45 51 123v4h54v-8c0 -108 -57 -174 -105 -174c-47 0 -106 63 -106 175v217c0 68 21 97 84 97h43c63 0 85 -29 85 -97v-135h-158zM189 289v89c0 32 -8 44 -36 44h-30c-28 0 -37 -12 -37 -44v-89h103zM135 631l86 -100l-1 -2l-83 37
l-84 -37l-1 2z" />
    <glyph glyph-name="edieresis" unicode="&#xeb;" horiz-adv-x="274" 
d="M86 242v-82c0 -77 30 -120 52 -120s51 45 51 123v4h54v-8c0 -108 -57 -174 -105 -174c-47 0 -106 63 -106 175v217c0 68 21 97 84 97h43c63 0 85 -29 85 -97v-135h-158zM189 289v89c0 32 -8 44 -36 44h-30c-28 0 -37 -12 -37 -44v-89h103zM82 609c19 0 35 -15 35 -33
c0 -19 -15 -33 -35 -33s-34 14 -34 33c0 18 15 33 34 33zM189 609c19 0 35 -15 35 -33c0 -19 -15 -33 -35 -33s-34 14 -34 33c0 18 15 33 34 33z" />
    <glyph glyph-name="egrave" unicode="&#xe8;" horiz-adv-x="274" 
d="M86 242v-82c0 -77 30 -120 52 -120s51 45 51 123v4h54v-8c0 -108 -57 -174 -105 -174c-47 0 -106 63 -106 175v217c0 68 21 97 84 97h43c63 0 85 -29 85 -97v-135h-158zM189 289v89c0 32 -8 44 -36 44h-30c-28 0 -37 -12 -37 -44v-89h103zM140 634l34 -119h-4l-122 119
h92z" />
    <glyph glyph-name="eth" unicode="&#xf0;" horiz-adv-x="274" 
d="M95 706l55 -53l52 53l29 -30l-51 -51c58 -52 64 -96 64 -160v-305c0 -112 -60 -175 -106 -175c-47 0 -106 63 -106 175v217c0 68 21 97 84 97h73v12c0 40 -14 71 -47 101l-60 -60l-28 29l58 59l-55 52zM123 422c-28 0 -37 -12 -37 -44v-218c0 -76 28 -119 52 -119
c23 0 51 43 51 119v262h-66z" />
    <glyph glyph-name="iacute" unicode="&#xed;" horiz-adv-x="142" 
d="M42 0v474h57v-474h-57zM67 634h92l-122 -119h-4z" />
    <glyph glyph-name="icircumflex" unicode="&#xee;" horiz-adv-x="142" 
d="M42 0v474h57v-474h-57zM69 631l86 -100l-1 -2l-83 37l-84 -37l-1 2z" />
    <glyph glyph-name="idieresis" unicode="&#xef;" horiz-adv-x="142" 
d="M42 0v474h57v-474h-57zM16 609c19 0 35 -15 35 -33c0 -19 -15 -33 -35 -33s-34 14 -34 33c0 18 15 33 34 33zM123 609c19 0 35 -15 35 -33c0 -19 -15 -33 -35 -33s-34 14 -34 33c0 18 15 33 34 33z" />
    <glyph glyph-name="igrave" unicode="&#xec;" horiz-adv-x="142" 
d="M42 0v474h57v-474h-57zM74 634l34 -119h-4l-122 119h92z" />
    <glyph glyph-name="logicalnot" unicode="&#xac;" horiz-adv-x="833" 
d="M709 418v-245h-39v206h-546v39h585z" />
    <glyph glyph-name="minus" unicode="&#x2212;" horiz-adv-x="833" 
d="M709 318v-39h-585v39h585z" />
    <glyph glyph-name="mu" unicode="&#xb5;" horiz-adv-x="534" 
d="M159 519l-60 -288c-5 -25 -8 -47 -8 -69c0 -82 40 -126 114 -126c80 0 144 69 174 206l61 277h59l-81 -384c-7 -33 -12 -55 -12 -66c0 -20 11 -31 33 -31c2 0 8 0 19 1l-9 -47c-14 -3 -27 -6 -37 -6c-44 0 -65 20 -65 62c0 6 1 14 2 22c-28 -54 -82 -84 -152 -84
c-64 0 -113 31 -134 84l-58 -277h-59l154 726h59z" />
    <glyph glyph-name="multiply" unicode="&#xd7;" horiz-adv-x="833" 
d="M417 326l238 238l28 -28l-238 -238l238 -238l-28 -28l-238 238l-238 -238l-28 28l238 238l-238 238l28 28z" />
    <glyph glyph-name="ntilde" unicode="&#xf1;" horiz-adv-x="277" 
d="M90 422v-422h-54v474h129c64 0 83 -29 83 -97v-377h-54v378c0 32 -9 44 -37 44h-67zM232 598l-78 -73l-42 49l-71 -24l-2 2l80 79l44 -55l68 25z" />
    <glyph glyph-name="oacute" unicode="&#xf3;" horiz-adv-x="274" 
d="M116 474h43c63 0 85 -29 85 -97v-217c0 -112 -60 -175 -106 -175c-47 0 -106 63 -106 175v217c0 68 21 97 84 97zM153 422h-30c-28 0 -37 -12 -37 -44v-218c0 -76 28 -119 52 -119c23 0 51 43 51 119v218c0 32 -8 44 -36 44zM133 634h92l-122 -119h-4z" />
    <glyph glyph-name="ocircumflex" unicode="&#xf4;" horiz-adv-x="274" 
d="M116 474h43c63 0 85 -29 85 -97v-217c0 -112 -60 -175 -106 -175c-47 0 -106 63 -106 175v217c0 68 21 97 84 97zM153 422h-30c-28 0 -37 -12 -37 -44v-218c0 -76 28 -119 52 -119c23 0 51 43 51 119v218c0 32 -8 44 -36 44zM135 631l86 -100l-1 -2l-83 37l-84 -37l-1 2z
" />
    <glyph glyph-name="odieresis" unicode="&#xf6;" horiz-adv-x="274" 
d="M116 474h43c63 0 85 -29 85 -97v-217c0 -112 -60 -175 -106 -175c-47 0 -106 63 -106 175v217c0 68 21 97 84 97zM153 422h-30c-28 0 -37 -12 -37 -44v-218c0 -76 28 -119 52 -119c23 0 51 43 51 119v218c0 32 -8 44 -36 44zM82 609c19 0 35 -15 35 -33
c0 -19 -15 -33 -35 -33s-34 14 -34 33c0 18 15 33 34 33zM189 609c19 0 35 -15 35 -33c0 -19 -15 -33 -35 -33s-34 14 -34 33c0 18 15 33 34 33z" />
    <glyph glyph-name="ograve" unicode="&#xf2;" horiz-adv-x="274" 
d="M116 474h43c63 0 85 -29 85 -97v-217c0 -112 -60 -175 -106 -175c-47 0 -106 63 -106 175v217c0 68 21 97 84 97zM153 422h-30c-28 0 -37 -12 -37 -44v-218c0 -76 28 -119 52 -119c23 0 51 43 51 119v218c0 32 -8 44 -36 44zM140 634l34 -119h-4l-122 119h92z" />
    <glyph glyph-name="onehalf" unicode="&#xbd;" horiz-adv-x="424" 
d="M20 678h74v-384h-36v356h-38v28zM381 694l-353 -710h-48l354 710h47zM281 269h-38v41c0 51 11 74 64 74h33c43 0 62 -18 62 -59v-56c0 -7 -1 -15 -10 -28l-107 -149c-4 -6 -4 -10 -4 -15v-47h124l1 -30h-163v82c0 7 2 12 6 18l109 153c7 10 8 15 8 22v37
c0 27 -4 40 -27 40h-31c-24 0 -27 -13 -27 -40v-43z" />
    <glyph glyph-name="onequarter" unicode="&#xbc;" horiz-adv-x="424" 
d="M20 678h74v-384h-36v356h-38v28zM381 694l-353 -710h-48l354 710h47zM274 384v-211c0 -33 3 -40 30 -40h45v251h36v-251h34v-32h-34v-101h-36v100h-43c-47 0 -68 20 -68 62v222h36z" />
    <glyph glyph-name="onesuperior" unicode="&#xb9;" horiz-adv-x="144" 
d="M20 680h79v-412h-38v381h-41v31z" />
    <glyph glyph-name="otilde" unicode="&#xf5;" horiz-adv-x="274" 
d="M116 474h43c63 0 85 -29 85 -97v-217c0 -112 -60 -175 -106 -175c-47 0 -106 63 -106 175v217c0 68 21 97 84 97zM153 422h-30c-28 0 -37 -12 -37 -44v-218c0 -76 28 -119 52 -119c23 0 51 43 51 119v218c0 32 -8 44 -36 44zM234 598l-78 -73l-42 49l-71 -24l-2 2l80 79
l44 -55l68 25z" />
    <glyph glyph-name="plusminus" unicode="&#xb1;" horiz-adv-x="833" 
d="M436 567v-173h273v-39h-273v-172h-39v172h-273v39h273v173h39zM709 69v-39h-585v39h585z" />
    <glyph glyph-name="registered" unicode="&#xae;" horiz-adv-x="284" 
d="M173 496l20 -14c10 -7 14 -13 14 -22v-87h-28v76c0 10 -4 15 -14 21l-51 31v-128h-29v268h71c34 0 50 -17 50 -53v-19c0 -34 -10 -57 -33 -73zM114 533l25 -15c5 -3 9 -4 11 -4c10 0 28 21 28 57v12c0 22 -5 32 -22 32h-42v-82zM200 686c52 0 59 -14 59 -65v-231
c0 -51 -7 -64 -59 -64h-116c-51 0 -58 12 -58 64v231c0 52 7 65 58 65h116zM88 667c-38 0 -41 -5 -41 -47v-228c0 -42 3 -47 41 -47h109c38 0 41 5 41 47v228c0 42 -3 47 -41 47h-109z" />
    <glyph glyph-name="scaron" unicode="&#x161;" horiz-adv-x="268" 
d="M219 420h-100c-31 0 -36 -13 -36 -44v-35c0 -42 4 -44 43 -44h28c64 0 85 -29 85 -98v-39c0 -112 -60 -175 -106 -175c-45 0 -106 65 -106 165v5h54c2 -74 31 -115 52 -115s51 44 51 120v30c0 39 -6 51 -43 51h-28c-68 0 -86 29 -86 102v45c0 59 26 86 84 86h108v-54z
M141 529l-86 101l1 1l84 -36l83 36l1 -1z" />
    <glyph glyph-name="thorn" unicode="&#xfe;" horiz-adv-x="274" 
d="M31 686h56v-212h72c63 0 84 -29 84 -97v-223c0 -81 -55 -144 -156 -168v-204h-56v904zM87 422v-380c79 22 101 61 101 144v192c0 32 -8 44 -36 44h-65z" />
    <glyph glyph-name="threequarters" unicode="&#xbe;" horiz-adv-x="488" 
d="M62 491v32h36c37 0 44 3 44 40v43c0 27 -3 40 -27 40h-29c-24 0 -27 -13 -27 -40v-14h-37v12c0 51 11 74 63 74h30c53 0 63 -23 63 -74v-54c0 -24 -10 -40 -27 -44v-2c19 -4 27 -18 27 -44v-43c0 -88 -39 -132 -79 -132c-37 0 -79 44 -79 118v9h36v-2
c0 -59 23 -92 43 -92c19 0 43 33 43 82v51c0 37 -7 41 -44 41zM446 694l-353 -710h-48l354 710h47zM339 384v-211c0 -33 3 -40 30 -40h45v251h36v-251h34v-32h-34v-101h-36v100h-43c-47 0 -68 20 -68 62v222h36z" />
    <glyph glyph-name="threesuperior" unicode="&#xb3;" horiz-adv-x="211" 
d="M65 479v34h38c39 0 46 3 46 44v45c0 30 -3 43 -29 43h-30c-25 0 -29 -13 -29 -43v-14h-38v12c0 54 11 80 66 80h32c55 0 66 -26 66 -80v-57c0 -27 -11 -43 -29 -48v-2c20 -5 29 -20 29 -47v-47c0 -94 -42 -141 -83 -141c-39 0 -83 48 -83 126v11h38v-3
c0 -63 24 -98 45 -98c19 0 45 35 45 88v55c0 39 -7 43 -46 43z" />
    <glyph glyph-name="trademark" unicode="&#x2122;" horiz-adv-x="522" 
d="M28 686h167v-35h-64v-280h-40v280h-63v35zM376 371h-38v175c0 6 -3 13 -9 19l-60 63h-3v-257h-38v315h27c11 0 14 -2 20 -9l82 -91l82 91c6 7 9 9 20 9h27v-315h-38v257h-3l-60 -63c-6 -7 -9 -12 -9 -22v-172z" />
    <glyph glyph-name="twosuperior" unicode="&#xb2;" horiz-adv-x="211" 
d="M61 557h-39v43c0 54 12 79 67 79h34c45 0 66 -19 66 -62v-60c0 -8 -2 -17 -11 -31l-112 -160c-5 -6 -5 -10 -5 -15v-51h131l1 -32h-171v88c0 7 2 12 6 19l115 164c7 11 7 16 7 24v39c0 30 -3 43 -28 43h-32c-25 0 -29 -13 -29 -43v-45z" />
    <glyph glyph-name="uacute" unicode="&#xfa;" horiz-adv-x="283" 
d="M189 474h55v-474h-121c-63 0 -84 29 -84 97v377h54v-367c0 -40 13 -59 44 -59h52v426zM138 634h92l-122 -119h-4z" />
    <glyph glyph-name="ucircumflex" unicode="&#xfb;" horiz-adv-x="283" 
d="M189 474h55v-474h-121c-63 0 -84 29 -84 97v377h54v-367c0 -40 13 -59 44 -59h52v426zM140 631l86 -100l-1 -2l-83 37l-84 -37l-1 2z" />
    <glyph glyph-name="udieresis" unicode="&#xfc;" horiz-adv-x="283" 
d="M189 474h55v-474h-121c-63 0 -84 29 -84 97v377h54v-367c0 -40 13 -59 44 -59h52v426zM87 609c19 0 35 -15 35 -33c0 -19 -15 -33 -35 -33s-34 14 -34 33c0 18 15 33 34 33zM194 609c19 0 35 -15 35 -33c0 -19 -15 -33 -35 -33s-34 14 -34 33c0 18 15 33 34 33z" />
    <glyph glyph-name="ugrave" unicode="&#xf9;" horiz-adv-x="283" 
d="M189 474h55v-474h-121c-63 0 -84 29 -84 97v377h54v-367c0 -40 13 -59 44 -59h52v426zM145 634l34 -119h-4l-122 119h92z" />
    <glyph glyph-name="yacute" unicode="&#xfd;" horiz-adv-x="274" 
d="M184 474h53v-692h-54v218h-66c-61 0 -84 31 -84 100v374h54v-362c0 -41 11 -59 44 -59h53v421zM137 634h92l-122 -119h-4z" />
    <glyph glyph-name="ydieresis" unicode="&#xff;" horiz-adv-x="274" 
d="M184 474h53v-692h-54v218h-66c-61 0 -84 31 -84 100v374h54v-362c0 -41 11 -59 44 -59h53v421zM86 609c19 0 35 -15 35 -33c0 -19 -15 -33 -35 -33s-34 14 -34 33c0 18 15 33 34 33zM193 609c19 0 35 -15 35 -33c0 -19 -15 -33 -35 -33s-34 14 -34 33c0 18 15 33 34 33z
" />
    <glyph glyph-name="zcaron" unicode="&#x17e;" horiz-adv-x="250" 
d="M25 474h202v-90c0 -5 -2 -9 -4 -12l-142 -263c-1 -2 -3 -4 -3 -9v-49h153v-51h-209v104c0 6 3 11 6 16l137 251c6 12 6 19 6 25v25h-146v53zM126 529l-86 101l1 1l84 -36l83 36l1 -1z" />
    </font>
</defs>
</svg>
