<svg id="Layer_5" enable-background="new 0 0 64 64" height="512" viewBox="0 0 64 64" width="512" xmlns="http://www.w3.org/2000/svg"><g fill="#f0bc5e"><path d="m37 35h1v-2h1.394c2.351 0 4.649-.696 6.606-2 1.956 1.304 4.255 2 6.606 2h1.394v2h1c1.657 0 3 1.343 3 3v-4c0-6.627-5.373-12-12-12s-12 5.373-12 12v4c0-1.657 1.343-3 3-3z"/><path d="m55 41h-2.321c-.866 1.718-2.129 3.217-3.692 4.37h.013v1.24c0 1.472.808 2.824 2.104 3.522l5.614 3.023c.45.242.87.522 1.271.824h.011v-15.979c0 1.657-1.343 3-3 3z"/><path d="m35.283 53.155 5.614-3.023c1.295-.697 2.103-2.05 2.103-3.521v-1.24h.013c-1.563-1.154-2.827-2.653-3.692-4.37h-2.321c-1.657 0-3-1.343-3-3v15.989c.405-.306.828-.59 1.283-.835z"/><path d="m37 6h14v5h-14z"/><path d="m9 54h14v5h-14z"/><path d="m18.099 2h-.198c-6.277 0-11.698 4.856-11.895 11.13-.165 5.234 3.174 9.706 7.845 11.269-2.406-2.282-3.851-5.489-3.851-8.943v-2.456h1.394c2.351 0 4.649-.696 6.606-2 1.956 1.304 4.255 2 6.606 2h1.394v2.456c0 3.454-1.445 6.661-3.851 8.943 4.671-1.564 8.009-6.035 7.845-11.269-.197-6.274-5.618-11.13-11.895-11.13z"/></g><path d="m57.19 52.275-5.613-3.022c-.973-.524-1.577-1.537-1.577-2.642v-.763c1.324-1.067 2.429-2.377 3.261-3.847h1.739c2.206 0 4-1.794 4-4s-1.794-4-4-4v-2h-2.395c-2.161 0-4.253-.633-6.051-1.832l-.554-.371-.555.37c-1.798 1.199-3.889 1.832-6.05 1.832h-2.395v2c-1.468 0-2.74.804-3.436 1.986-1.116-1.969-2.827-3.593-4.955-4.575l-4.866-2.247c-1.058-.488-1.743-1.558-1.743-2.724v-.593c3.09-2.491 5-6.299 5-10.391v-3.456h-2.395c-2.161 0-4.253-.633-6.051-1.832l-.554-.37-.555.37c-1.798 1.199-3.889 1.832-6.05 1.832h-2.395v3.456c0 4.092 1.91 7.901 5 10.391v.593c0 1.166-.685 2.235-1.743 2.724l-4.866 2.246c-3.882 1.792-6.391 5.713-6.391 9.988v1.602h34v-1.556c.591.344 1.268.556 2 .556h1.739c.833 1.471 1.937 2.78 3.261 3.847v.763c0 1.105-.604 2.118-1.577 2.642l-5.613 3.022c-3.584 1.93-5.81 5.657-5.81 9.726v1h34v-1c0-4.069-2.226-7.796-5.81-9.725zm-.19-14.275c0 1.103-.897 2-2 2h-.817c.464-1.269.738-2.614.796-4h.021c1.103 0 2 .897 2 2zm-35.286-7.794c.229.2.483.372.749.529l-.959 3.356-2.023-2.024zm-10.714-14.75v-1.456h.395c2.338 0 4.607-.626 6.605-1.818 1.998 1.192 4.268 1.818 6.605 1.818h.395v1.456c0 4.57-2.798 8.729-7 10.469-4.202-1.739-7-5.899-7-10.469zm6.648 12.481.352.131.352-.131c.591-.222 1.156-.488 1.7-.786.074.512.232 1.003.454 1.461l-2.506 2.087-2.506-2.087c.222-.458.38-.948.454-1.461.544.298 1.11.564 1.7.786zm-1.129 4.13-2.023 2.024-.958-3.355c.266-.157.52-.329.749-.53zm12.481 8.933v-4h-2v4h-18v-4h-2v4h-3.991c.149-3.342 2.164-6.363 5.22-7.773l3.48-1.606 1.797 6.288 4.494-4.495 4.495 4.495 1.797-6.289 3.48 1.607c3.056 1.41 5.07 4.431 5.22 7.773zm8-1c-1.103 0-2-.897-2-2s.897-2 2-2h.021c.057 1.386.331 2.731.796 4zm2-4.544v-1.456h.395c2.338 0 4.607-.626 6.605-1.818 1.998 1.192 4.268 1.818 6.605 1.818h.395v1.456c0 4.57-2.798 8.729-7 10.469-4.202-1.739-7-5.899-7-10.469zm6.648 12.481.352.131.352-.131c.586-.22 1.146-.484 1.686-.778.137 1.244.733 2.377 1.661 3.195-.94 1.039-2.263 1.646-3.699 1.646s-2.759-.607-3.698-1.647c.928-.818 1.524-1.951 1.661-3.195.539.295 1.1.559 1.685.779zm11.352 13.063v-4h-2v4h-18v-4h-2v4h-3.945c.325-2.934 2.064-5.544 4.702-6.964l4.829-2.6c1.321 1.619 3.283 2.564 5.414 2.564s4.093-.945 5.414-2.565l4.829 2.6c2.638 1.42 4.377 4.03 4.702 6.964h-3.945z"/><path d="m37 5h14v2h-14z"/><path d="m37 9h10v2h-10z"/><path d="m49 9h2v2h-2z"/><path d="m36 15h6v1.586c0 1.331 1.083 2.414 2.414 2.414.637 0 1.259-.258 1.707-.707l3.293-3.293h2.586c1.654 0 3-1.346 3-3v-8c0-1.654-1.346-3-3-3h-16c-1.654 0-3 1.346-3 3v8c0 1.654 1.346 3 3 3zm-1-11c0-.551.448-1 1-1h16c.552 0 1 .449 1 1v8c0 .551-.448 1-1 1h-3.414l-3.88 3.879c-.235.237-.706.045-.706-.293v-3.586h-8c-.552 0-1-.449-1-1z"/><path d="m9 57h10v2h-10z"/><path d="m21 57h2v2h-2z"/><path d="m9 53h14v2h-14z"/><path d="m24 49h-6v-1.586c0-1.331-1.083-2.414-2.414-2.414-.637 0-1.259.258-1.707.707l-3.293 3.293h-2.586c-1.654 0-3 1.346-3 3v8c0 1.654 1.346 3 3 3h16c1.654 0 3-1.346 3-3v-8c0-1.654-1.346-3-3-3zm1 11c0 .551-.448 1-1 1h-16c-.552 0-1-.449-1-1v-8c0-.551.448-1 1-1h3.414l3.88-3.879c.235-.238.706-.045.706.293v3.586h8c.552 0 1 .449 1 1z"/></svg>