<?xml version="1.0" encoding="utf-8"?>
<!-- Generator: Adobe Illustrator 24.1.0, SVG Export Plug-In . SVG Version: 6.00 Build 0)  -->
<svg version="1.1" id="Layer_1" xmlns="http://www.w3.org/2000/svg" xmlns:xlink="http://www.w3.org/1999/xlink" x="0px" y="0px"
	 viewBox="0 0 668 230.5" style="enable-background:new 0 0 668 230.5;" xml:space="preserve">
<style type="text/css">
	.st0{fill:#EE312A;}
	.st1{fill:#FFFFFF;}
</style>
<desc>Created with Sketch.</desc>
<g id="Page-1">
	<g id="verve">
		<circle id="Oval" class="st0" cx="115.3" cy="115.3" r="115.3"/>
		<path id="Shape" class="st1" d="M115.3,164.6c-25.8-58.4-44.7-113-44.7-113H31.1c0,0,24.1,70.1,68.7,157.7h30.9
			c44.7-87.6,68.7-157.7,68.7-157.7h-39.5C159.9,51.6,141,106.2,115.3,164.6z"/>
		<path id="Shape_1_" class="st1" d="M667,157.4h-77.3c0,0,1.7,25.8,36.1,25.8c17.2,0,34.4-5.2,34.4-5.2l3.4,27.5
			c0,0-17.2,6.9-41.2,6.9c-34.4,0-65.3-17.2-65.3-65.3c0-37.8,24.1-61.9,58.4-61.9C667,85.2,670.5,136.7,667,157.4z M613.8,109.3
			c-22.3,0-24.1,24.1-24.1,24.1h48.1C637.8,133.3,636.1,109.3,613.8,109.3z"/>
		<path id="Shape_2_" class="st1" d="M401.3,116.5l5.2-27.5c0,0-39.8-12.1-72.2,10.3v110h34.4l0-89.4
			C382.4,109.6,401.3,116.5,401.3,116.5z"/>
		<path id="Shape_3_" class="st1" d="M307.4,157.4h-77.3c0,0,1.7,25.8,36.1,25.8c17.2,0,34.4-5.2,34.4-5.2l3.4,27.5
			c0,0-17.2,6.9-41.2,6.9c-34.4,0-65.3-17.2-65.3-65.3c0-37.8,24.1-61.9,58.4-61.9C307.4,85.2,310.9,136.7,307.4,157.4z
			 M254.1,109.3c-22.3,0-24.1,24.1-24.1,24.1h48.1C278.2,133.3,276.5,109.3,254.1,109.3z"/>
		<path id="Shape_4_" class="st1" d="M484.8,168.1c-10.7-26-19.3-52.8-25.8-80.1l-34.4,0c0,0,17.2,66.3,46.4,121.3h27.5
			c29.2-55,46.4-121.3,46.4-121.3h-34.4C504.1,115.3,495.5,142.1,484.8,168.1z"/>
	</g>
</g>
</svg>
