<?xml version="1.0" encoding="utf-8"?>
<!-- Generator: Adobe Illustrator 24.1.0, SVG Export Plug-In . SVG Version: 6.00 Build 0)  -->
<svg version="1.1" id="Layer_1" xmlns="http://www.w3.org/2000/svg" xmlns:xlink="http://www.w3.org/1999/xlink" x="0px" y="0px"
	 viewBox="0 0 365.2 117.9" style="enable-background:new 0 0 365.2 117.9;" xml:space="preserve">
<style type="text/css">
	.st0{clip-path:url(#SVGID_2_);fill:url(#SVGID_3_);}
</style>
<g id="XMLID_1_">
	<g id="XMLID_2_">
		<g>
			<defs>
				<path id="SVGID_1_" d="M188.8,37.6c-0.2,16.4,14.6,25.6,25.8,31c11.5,5.6,15.3,9.2,15.3,14.2c-0.1,7.7-9.2,11-17.7,11.2
					c-14.8,0.2-23.4-4-30.3-7.2l-5.3,25c6.9,3.2,19.6,5.9,32.8,6.1c31,0,51.2-15.3,51.3-39c0.1-30.1-41.6-31.8-41.3-45.2
					c0.1-4.1,4-8.4,12.5-9.5c4.2-0.6,15.9-1,29.1,5.1l5.2-24.2C259.1,2.5,250,0,238.6,0C209.4,0,188.9,15.5,188.8,37.6 M316,2
					c-5.7,0-10.4,3.3-12.5,8.4L259.3,116h31l6.2-17h37.8l3.6,17h27.3L341.4,2H316 M320.3,32.8l8.9,42.8h-24.5L320.3,32.8 M151.2,2
					l-24.4,114h29.5L180.7,2H151.2 M107.6,2L76.9,79.6l-12.4-66C63,6.2,57.3,2,50.9,2H0.7L0,5.3c10.3,2.2,22,5.8,29.1,9.7
					c4.3,2.4,5.6,4.4,7,10l23.5,91h31.2L138.6,2H107.6"/>
			</defs>
			<clipPath id="SVGID_2_">
				<use xlink:href="#SVGID_1_"  style="overflow:visible;"/>
			</clipPath>
			
				<linearGradient id="SVGID_3_" gradientUnits="userSpaceOnUse" x1="-498.3558" y1="443.2674" x2="-497.6229" y2="443.2674" gradientTransform="matrix(419.708 -154.5691 -154.5691 -419.708 277712.3438 109126.4219)">
				<stop  offset="0" style="stop-color:#222357"/>
				<stop  offset="1" style="stop-color:#254AA5"/>
			</linearGradient>
			<polyline class="st0" points="-38.2,14 321.4,-118.4 403.2,103.8 43.6,236.2 			"/>
		</g>
	</g>
</g>
</svg>
